/*
  Fur Elise
  Connect a piezo buzzer or speaker to pin 11 or select a new pin.
  More songs available at https://github.com/robsoncouto/arduino-songs

                                              Robson Couto, 2019
*/
/*#define BEEP_PIN A3 //AMA
#define RGB1_PIN A2 //AMA
#define RGB2_PIN A1 //AMA
#define RGB3_PIN A0 //AMA
*/
#define NOTE_B0  31
#define NOTE_C1  33
#define NOTE_CS1 35
#define NOTE_D1  37
#define NOTE_DS1 39
#define NOTE_E1  41
#define NOTE_F1  44
#define NOTE_FS1 46
#define NOTE_G1  49
#define NOTE_GS1 52
#define NOTE_A1  55
#define NOTE_AS1 58
#define NOTE_B1  62
#define NOTE_C2  65
#define NOTE_CS2 69
#define NOTE_D2  73
#define NOTE_DS2 78
#define NOTE_E2  82
#define NOTE_F2  87
#define NOTE_FS2 93
#define NOTE_G2  98
#define NOTE_GS2 104
#define NOTE_A2  110
#define NOTE_AS2 117
#define NOTE_B2  123
#define NOTE_C3  131
#define NOTE_CS3 139
#define NOTE_D3  147
#define NOTE_DS3 156
#define NOTE_E3  165
#define NOTE_F3  175
#define NOTE_FS3 185
#define NOTE_G3  196
#define NOTE_GS3 208
#define NOTE_A3  220
#define NOTE_AS3 233
#define NOTE_B3  247
#define NOTE_C4  262
#define NOTE_CS4 277
#define NOTE_D4  294
#define NOTE_DS4 311
#define NOTE_E4  330
#define NOTE_F4  349
#define NOTE_FS4 370
#define NOTE_G4  392
#define NOTE_GS4 415
#define NOTE_A4  440
#define NOTE_AS4 466
#define NOTE_B4  494
#define NOTE_C5  523
#define NOTE_CS5 554
#define NOTE_D5  587
#define NOTE_DS5 622
#define NOTE_E5  659
#define NOTE_F5  698
#define NOTE_FS5 740
#define NOTE_G5  784
#define NOTE_GS5 831
#define NOTE_A5  880
#define NOTE_AS5 932
#define NOTE_B5  988
#define NOTE_C6  1047
#define NOTE_CS6 1109
#define NOTE_D6  1175
#define NOTE_DS6 1245
#define NOTE_E6  1319
#define NOTE_F6  1397
#define NOTE_FS6 1480
#define NOTE_G6  1568
#define NOTE_GS6 1661
#define NOTE_A6  1760
#define NOTE_AS6 1865
#define NOTE_B6  1976
#define NOTE_C7  2093
#define NOTE_CS7 2217
#define NOTE_D7  2349
#define NOTE_DS7 2489
#define NOTE_E7  2637
#define NOTE_F7  2794
#define NOTE_FS7 2960
#define NOTE_G7  3136
#define NOTE_GS7 3322
#define NOTE_A7  3520
#define NOTE_AS7 3729
#define NOTE_B7  3951
#define NOTE_C8  4186
#define NOTE_CS8 4435
#define NOTE_D8  4699
#define NOTE_DS8 4978
#define REST      0


// change this to make the song slower or faster
int tempo = 100; //ini, enter the true value in the function music_select() //80

// change this to whichever pin you want to use
//int buzzer = 11;

int* melody = NULL; //poiner to the selected melody

// notes of the moledy followed by the duration.
// a 4 means a quarter note, 8 an eighteenth , 16 sixteenth, so on
// !!negative numbers are used to represent dotted notes,
// so -4 means a dotted quarter note, that is, a quarter plus an eighteenth!!

const int melody0[] PROGMEM = {

  // podmoskovnye vechera
  
  NOTE_D5, 8, NOTE_F5, 8, NOTE_A5, 8, NOTE_F5, 8, 
  NOTE_G5, 4, NOTE_F5, 8, NOTE_E5, 8, 
  NOTE_A5, 4, NOTE_G5, 4,
  NOTE_D5, 2, 
  NOTE_F5, 8, NOTE_A5, 8, NOTE_C6, 8, NOTE_C6, 8,
  NOTE_D6, 4, NOTE_C6, 8, NOTE_AS5, 8,
  NOTE_A5, 2,
  NOTE_B5, 4, NOTE_CS6, 4,
  NOTE_E6, 8, NOTE_D6, 8, NOTE_A5, 3, //4 + 8 = 3
			  NOTE_E5, 4, NOTE_D5, 8,
  NOTE_A5, 5, NOTE_G5, 16, NOTE_AS5, 2, //8 + 16 = 5
			  NOTE_C6, 8, NOTE_AS5, 8,
  NOTE_A5, 4, NOTE_G5, 8, NOTE_F5, 8,
  NOTE_A5, 4, NOTE_G5, 4,
  NOTE_D5, 2,
};

const int melody1[] PROGMEM = {

  // Fur Elise - Ludwig van Beethovem
  // Score available at https://musescore.com/user/28149610/scores/5281944

  //starts from 1 ending on 9
  NOTE_E5, 16, NOTE_DS5, 16, //1
  NOTE_E5, 16, NOTE_DS5, 16, NOTE_E5, 16, NOTE_B4, 16, NOTE_D5, 16, NOTE_C5, 16,
  NOTE_A4, -8, NOTE_C4, 16, NOTE_E4, 16, NOTE_A4, 16,
  NOTE_B4, -8, NOTE_E4, 16, NOTE_GS4, 16, NOTE_B4, 16,
  NOTE_C5, 8,  REST, 16, NOTE_E4, 16, NOTE_E5, 16,  NOTE_DS5, 16,
  
  NOTE_E5, 16, NOTE_DS5, 16, NOTE_E5, 16, NOTE_B4, 16, NOTE_D5, 16, NOTE_C5, 16,//6
  NOTE_A4, -8, NOTE_C4, 16, NOTE_E4, 16, NOTE_A4, 16, 
  NOTE_B4, -8, NOTE_E4, 16, NOTE_C5, 16, NOTE_B4, 16, 
  NOTE_A4 , 4, REST, 8, //9 - 1st ending

  //repaets from 1 ending on 10
  NOTE_E5, 16, NOTE_DS5, 16, //1
  NOTE_E5, 16, NOTE_DS5, 16, NOTE_E5, 16, NOTE_B4, 16, NOTE_D5, 16, NOTE_C5, 16,
  NOTE_A4, -8, NOTE_C4, 16, NOTE_E4, 16, NOTE_A4, 16,
  NOTE_B4, -8, NOTE_E4, 16, NOTE_GS4, 16, NOTE_B4, 16,
  NOTE_C5, 8,  REST, 16, NOTE_E4, 16, NOTE_E5, 16,  NOTE_DS5, 16,
  
  NOTE_E5, 16, NOTE_DS5, 16, NOTE_E5, 16, NOTE_B4, 16, NOTE_D5, 16, NOTE_C5, 16,//6
  NOTE_A4, -8, NOTE_C4, 16, NOTE_E4, 16, NOTE_A4, 16, 
  NOTE_B4, -8, NOTE_E4, 16, NOTE_C5, 16, NOTE_B4, 16, 
  NOTE_A4, 8, REST, 16, NOTE_B4, 16, NOTE_C5, 16, NOTE_D5, 16, //10 - 2nd ending
  //continues from 11
  NOTE_E5, -8, NOTE_G4, 16, NOTE_F5, 16, NOTE_E5, 16, 
  NOTE_D5, -8, NOTE_F4, 16, NOTE_E5, 16, NOTE_D5, 16, //12
  
  NOTE_C5, -8, NOTE_E4, 16, NOTE_D5, 16, NOTE_C5, 16, //13
  NOTE_B4, 8, REST, 16, NOTE_E4, 16, NOTE_E5, 16, REST, 16,
  REST, 16, NOTE_E5, 16, NOTE_E6, 16, REST, 16, REST, 16, NOTE_DS5, 16,
  NOTE_E5, 16, REST, 16, REST, 16, NOTE_DS5, 16, NOTE_E5, 16, NOTE_DS5, 16,
  NOTE_E5, 16, NOTE_DS5, 16, NOTE_E5, 16, NOTE_B4, 16, NOTE_D5, 16, NOTE_C5, 16,
  NOTE_A4, 8, REST, 16, NOTE_C4, 16, NOTE_E4, 16, NOTE_A4, 16,
  
  NOTE_B4, 8, REST, 16, NOTE_E4, 16, NOTE_GS4, 16, NOTE_B4, 16, //19
  NOTE_C5, 8, REST, 16, NOTE_E4, 16, NOTE_E5, 16,  NOTE_DS5, 16,
  NOTE_E5, 16, NOTE_DS5, 16, NOTE_E5, 16, NOTE_B4, 16, NOTE_D5, 16, NOTE_C5, 16,
  NOTE_A4, 8, REST, 16, NOTE_C4, 16, NOTE_E4, 16, NOTE_A4, 16,
  NOTE_B4, 8, REST, 16, NOTE_E4, 16, NOTE_C5, 16, NOTE_B4, 16,
  NOTE_A4, 8, REST, 16, NOTE_B4, 16, NOTE_C5, 16, NOTE_D5, 16, //24 (1st ending)
  
  //repeats from 11
  NOTE_E5, -8, NOTE_G4, 16, NOTE_F5, 16, NOTE_E5, 16, 
  NOTE_D5, -8, NOTE_F4, 16, NOTE_E5, 16, NOTE_D5, 16, //12
  
  NOTE_C5, -8, NOTE_E4, 16, NOTE_D5, 16, NOTE_C5, 16, //13
  NOTE_B4, 8, REST, 16, NOTE_E4, 16, NOTE_E5, 16, REST, 16,
  REST, 16, NOTE_E5, 16, NOTE_E6, 16, REST, 16, REST, 16, NOTE_DS5, 16,
  NOTE_E5, 16, REST, 16, REST, 16, NOTE_DS5, 16, NOTE_E5, 16, NOTE_DS5, 16,
  NOTE_E5, 16, NOTE_DS5, 16, NOTE_E5, 16, NOTE_B4, 16, NOTE_D5, 16, NOTE_C5, 16,
  NOTE_A4, 8, REST, 16, NOTE_C4, 16, NOTE_E4, 16, NOTE_A4, 16,
  
  NOTE_B4, 8, REST, 16, NOTE_E4, 16, NOTE_GS4, 16, NOTE_B4, 16, //19
  NOTE_C5, 8, REST, 16, NOTE_E4, 16, NOTE_E5, 16,  NOTE_DS5, 16,
  NOTE_E5, 16, NOTE_DS5, 16, NOTE_E5, 16, NOTE_B4, 16, NOTE_D5, 16, NOTE_C5, 16,
  NOTE_A4, 8, REST, 16, NOTE_C4, 16, NOTE_E4, 16, NOTE_A4, 16,
  NOTE_B4, 8, REST, 16, NOTE_E4, 16, NOTE_C5, 16, NOTE_B4, 16,
  NOTE_A4, 8, REST, 16, NOTE_C5, 16, NOTE_C5, 16, NOTE_C5, 16, //25 - 2nd ending

  //continues from 26
  NOTE_C5 , 4, NOTE_F5, -16, NOTE_E5, 32, //26
  NOTE_E5, 8, NOTE_D5, 8, NOTE_AS5, -16, NOTE_A5, 32,
  NOTE_A5, 16, NOTE_G5, 16, NOTE_F5, 16, NOTE_E5, 16, NOTE_D5, 16, NOTE_C5, 16,
  NOTE_AS4, 8, NOTE_A4, 8, NOTE_A4, 32, NOTE_G4, 32, NOTE_A4, 32, NOTE_B4, 32,
  NOTE_C5 , 4, NOTE_D5, 16, NOTE_DS5, 16,
  NOTE_E5, -8, NOTE_E5, 16, NOTE_F5, 16, NOTE_A4, 16,
  NOTE_C5 , 4,  NOTE_D5, -16, NOTE_B4, 32,
  
  
  NOTE_C5, 32, NOTE_G5, 32, NOTE_G4, 32, NOTE_G5, 32, NOTE_A4, 32, NOTE_G5, 32, NOTE_B4, 32, NOTE_G5, 32, NOTE_C5, 32, NOTE_G5, 32, NOTE_D5, 32, NOTE_G5, 32, //33
  NOTE_E5, 32, NOTE_G5, 32, NOTE_C6, 32, NOTE_B5, 32, NOTE_A5, 32, NOTE_G5, 32, NOTE_F5, 32, NOTE_E5, 32, NOTE_D5, 32, NOTE_G5, 32, NOTE_F5, 32, NOTE_D5, 32,
  NOTE_C5, 32, NOTE_G5, 32, NOTE_G4, 32, NOTE_G5, 32, NOTE_A4, 32, NOTE_G5, 32, NOTE_B4, 32, NOTE_G5, 32, NOTE_C5, 32, NOTE_G5, 32, NOTE_D5, 32, NOTE_G5, 32,

  NOTE_E5, 32, NOTE_G5, 32, NOTE_C6, 32, NOTE_B5, 32, NOTE_A5, 32, NOTE_G5, 32, NOTE_F5, 32, NOTE_E5, 32, NOTE_D5, 32, NOTE_G5, 32, NOTE_F5, 32, NOTE_D5, 32, //36
  NOTE_E5, 32, NOTE_F5, 32, NOTE_E5, 32, NOTE_DS5, 32, NOTE_E5, 32, NOTE_B4, 32, NOTE_E5, 32, NOTE_DS5, 32, NOTE_E5, 32, NOTE_B4, 32, NOTE_E5, 32, NOTE_DS5, 32,
  NOTE_E5, -8, NOTE_B4, 16, NOTE_E5, 16, NOTE_DS5, 16,
  NOTE_E5, -8, NOTE_B4, 16, NOTE_E5, 16, REST, 16,

  REST, 16, NOTE_DS5, 16, NOTE_E5, 16, REST, 16, REST, 16, NOTE_DS5, 16, //40
  NOTE_E5, 16, NOTE_DS5, 16, NOTE_E5, 16, NOTE_B4, 16, NOTE_D5, 16, NOTE_C5, 16,
  NOTE_A4, 8, REST, 16, NOTE_C4, 16, NOTE_E4, 16, NOTE_A4, 16,
  NOTE_B4, 8, REST, 16, NOTE_E4, 16, NOTE_GS4, 16, NOTE_B4, 16,
  NOTE_C5, 8, REST, 16, NOTE_E4, 16, NOTE_E5, 16, NOTE_DS5, 16,
  NOTE_E5, 16, NOTE_DS5, 16, NOTE_E5, 16, NOTE_B4, 16, NOTE_D5, 16, NOTE_C5, 16,

  NOTE_A4, 8, REST, 16, NOTE_C4, 16, NOTE_E4, 16, NOTE_A4, 16, //46
  NOTE_B4, 8, REST, 16, NOTE_E4, 16, NOTE_C5, 16, NOTE_B4, 16,
  NOTE_A4, 8, REST, 16, NOTE_B4, 16, NOTE_C5, 16, NOTE_D5, 16,
  NOTE_E5, -8, NOTE_G4, 16, NOTE_F5, 16, NOTE_E5, 16,
  NOTE_D5, -8, NOTE_F4, 16, NOTE_E5, 16, NOTE_D5, 16,
  NOTE_C5, -8, NOTE_E4, 16, NOTE_D5, 16, NOTE_C5, 16,
  NOTE_B4, 8, REST, 16, NOTE_E4, 16, NOTE_E5, 16, REST, 16,
  REST, 16, NOTE_E5, 16, NOTE_E6, 16, REST, 16, REST, 16, NOTE_DS5, 16,

  NOTE_E5, 16, REST, 16, REST, 16, NOTE_DS5, 16, NOTE_E5, 16, NOTE_D5, 16, //54
  NOTE_E5, 16, NOTE_DS5, 16, NOTE_E5, 16, NOTE_B4, 16, NOTE_D5, 16, NOTE_C5, 16,
  NOTE_A4, 8, REST, 16, NOTE_C4, 16, NOTE_E4, 16, NOTE_A4, 16,
  NOTE_B4, 8, REST, 16, NOTE_E4, 16, NOTE_GS4, 16, NOTE_B4, 16,
  NOTE_C5, 8, REST, 16, NOTE_E4, 16, NOTE_E5, 16, NOTE_DS5, 16,
  NOTE_E5, 16, NOTE_DS5, 16, NOTE_E5, 16, NOTE_B4, 16, NOTE_D5, 16, NOTE_C5, 16,
  
  NOTE_A4, 8, REST, 16, NOTE_C4, 16, NOTE_E4, 16, NOTE_A4, 16, //60
  NOTE_B4, 8, REST, 16, NOTE_E4, 16, NOTE_C5, 16, NOTE_B4, 16,
  NOTE_A4, 8, REST, 16, REST, 16, REST, 8, 
  NOTE_CS5 , -4, 
  NOTE_D5 , 4, NOTE_E5, 16, NOTE_F5, 16,
  NOTE_F5 , 4, NOTE_F5, 8, 
  NOTE_E5 , -4,
  NOTE_D5 , 4, NOTE_C5, 16, NOTE_B4, 16,
  NOTE_A4 , 4, NOTE_A4, 8,
  NOTE_A4, 8, NOTE_C5, 8, NOTE_B4, 8,
  NOTE_A4 , -4,
  NOTE_CS5 , -4,

  NOTE_D5 , 4, NOTE_E5, 16, NOTE_F5, 16, //72
  NOTE_F5 , 4, NOTE_F5, 8,
  NOTE_F5 , -4,
  NOTE_DS5 , 4, NOTE_D5, 16, NOTE_C5, 16,
  NOTE_AS4 , 4, NOTE_A4, 8,
  NOTE_GS4 , 4, NOTE_G4, 8,
  NOTE_A4 , -4,
  NOTE_B4 , 4, REST, 8,
  NOTE_A3, -32, NOTE_C4, -32, NOTE_E4, -32, NOTE_A4, -32, NOTE_C5, -32, NOTE_E5, -32, NOTE_D5, -32, NOTE_C5, -32, NOTE_B4, -32,

  NOTE_A4, -32, NOTE_C5, -32, NOTE_E5, -32, NOTE_A5, -32, NOTE_C6, -32, NOTE_E6, -32, NOTE_D6, -32, NOTE_C6, -32, NOTE_B5, -32, //80
  NOTE_A4, -32, NOTE_C5, -32, NOTE_E5, -32, NOTE_A5, -32, NOTE_C6, -32, NOTE_E6, -32, NOTE_D6, -32, NOTE_C6, -32, NOTE_B5, -32,
  NOTE_AS5, -32, NOTE_A5, -32, NOTE_GS5, -32, NOTE_G5, -32, NOTE_FS5, -32, NOTE_F5, -32, NOTE_E5, -32, NOTE_DS5, -32, NOTE_D5, -32,

  NOTE_CS5, -32, NOTE_C5, -32, NOTE_B4, -32, NOTE_AS4, -32, NOTE_A4, -32, NOTE_GS4, -32, NOTE_G4, -32, NOTE_FS4, -32, NOTE_F4, -32, //84
  NOTE_E4, 16, NOTE_DS5, 16, NOTE_E5, 16, NOTE_B4, 16, NOTE_D5, 16, NOTE_C5, 16,
  NOTE_A4, -8, NOTE_C4, 16, NOTE_E4, 16, NOTE_A4, 16,
  NOTE_B4, -8, NOTE_E4, 16, NOTE_GS4, 16, NOTE_B4, 16,

  NOTE_C5, 8, REST, 16, NOTE_E4, 16, NOTE_E5, 16, NOTE_DS5, 16, //88
  NOTE_E5, 16, NOTE_DS5, 16, NOTE_E5, 16, NOTE_B4, 16, NOTE_D5, 16, NOTE_C5, 16, 
  NOTE_A4, -8, NOTE_C4, 16, NOTE_E4, 16, NOTE_A4, 16, 
  NOTE_B4, -8, NOTE_E4, 16, NOTE_C5, 16, NOTE_B4, 16, 
  NOTE_A4, -8, REST, -8,
  REST, -8, NOTE_G4, 16, NOTE_F5, 16, NOTE_E5, 16,
  NOTE_D5 , 4, REST, 8,
  REST, -8, NOTE_E4, 16, NOTE_D5, 16, NOTE_C5, 16,
  
  NOTE_B4, -8, NOTE_E4, 16, NOTE_E5, 8, //96
  NOTE_E5, 8, NOTE_E6, -8, NOTE_DS5, 16,
  NOTE_E5, 16, REST, 16, REST, 16, NOTE_DS5, 16, NOTE_E5, 16, NOTE_DS5, 16,
  NOTE_E5, 16, NOTE_DS5, 16, NOTE_E5, 16, NOTE_B4, 16, NOTE_D5, 16, NOTE_C5, 16,
  NOTE_A4, -8, NOTE_C4, 16, NOTE_E4, 16, NOTE_A4, 16,
  NOTE_B4, -8, NOTE_E4, 16, NOTE_GS4, 16, NOTE_B4, 16,

  NOTE_C5, 8, REST, 16, NOTE_E4, 16, NOTE_E5, 16, NOTE_DS5, 16, //102
  NOTE_E5, 16, NOTE_DS5, 16, NOTE_E5, 16, NOTE_B4, 16, NOTE_D5, 16, NOTE_C5, 16,
  NOTE_A4, -8, NOTE_C4, 16, NOTE_E4, 16, NOTE_A4, 16,
  NOTE_B4, -8, NOTE_E4, 16, NOTE_C5, 16, NOTE_B4, 16,
  NOTE_A4 , -4,
};

const int melody2[] PROGMEM = {

  // We Wish You a Merry Christmas
  // Score available at https://musescore.com/user/6208766/scores/1497501
  
  NOTE_C5,4, //1
  NOTE_F5,4, NOTE_F5,8, NOTE_G5,8, NOTE_F5,8, NOTE_E5,8,
  NOTE_D5,4, NOTE_D5,4, NOTE_D5,4,
  NOTE_G5,4, NOTE_G5,8, NOTE_A5,8, NOTE_G5,8, NOTE_F5,8,
  NOTE_E5,4, NOTE_C5,4, NOTE_C5,4,
  NOTE_A5,4, NOTE_A5,8, NOTE_AS5,8, NOTE_A5,8, NOTE_G5,8,
  NOTE_F5,4, NOTE_D5,4, NOTE_C5,8, NOTE_C5,8,
  NOTE_D5,4, NOTE_G5,4, NOTE_E5,4,

  NOTE_F5,2, NOTE_C5,4, //8 
  NOTE_F5,4, NOTE_F5,8, NOTE_G5,8, NOTE_F5,8, NOTE_E5,8,
  NOTE_D5,4, NOTE_D5,4, NOTE_D5,4,
  NOTE_G5,4, NOTE_G5,8, NOTE_A5,8, NOTE_G5,8, NOTE_F5,8,
  NOTE_E5,4, NOTE_C5,4, NOTE_C5,4,
  NOTE_A5,4, NOTE_A5,8, NOTE_AS5,8, NOTE_A5,8, NOTE_G5,8,
  NOTE_F5,4, NOTE_D5,4, NOTE_C5,8, NOTE_C5,8,
  NOTE_D5,4, NOTE_G5,4, NOTE_E5,4,
  NOTE_F5,2, NOTE_C5,4,

  NOTE_F5,4, NOTE_F5,4, NOTE_F5,4,//17
  NOTE_E5,2, NOTE_E5,4,
  NOTE_F5,4, NOTE_E5,4, NOTE_D5,4,
  NOTE_C5,2, NOTE_A5,4,
  NOTE_AS5,4, NOTE_A5,4, NOTE_G5,4,
  NOTE_C6,4, NOTE_C5,4, NOTE_C5,8, NOTE_C5,8,
  NOTE_D5,4, NOTE_G5,4, NOTE_E5,4,
  NOTE_F5,2, NOTE_C5,4, 
  NOTE_F5,4, NOTE_F5,8, NOTE_G5,8, NOTE_F5,8, NOTE_E5,8,
  NOTE_D5,4, NOTE_D5,4, NOTE_D5,4,
  
  NOTE_G5,4, NOTE_G5,8, NOTE_A5,8, NOTE_G5,8, NOTE_F5,8, //27
  NOTE_E5,4, NOTE_C5,4, NOTE_C5,4,
  NOTE_A5,4, NOTE_A5,8, NOTE_AS5,8, NOTE_A5,8, NOTE_G5,8,
  NOTE_F5,4, NOTE_D5,4, NOTE_C5,8, NOTE_C5,8,
  NOTE_D5,4, NOTE_G5,4, NOTE_E5,4,
  NOTE_F5,2, NOTE_C5,4,
  NOTE_F5,4, NOTE_F5,4, NOTE_F5,4,
  NOTE_E5,2, NOTE_E5,4,
  NOTE_F5,4, NOTE_E5,4, NOTE_D5,4,
  
  NOTE_C5,2, NOTE_A5,4,//36
  NOTE_AS5,4, NOTE_A5,4, NOTE_G5,4,
  NOTE_C6,4, NOTE_C5,4, NOTE_C5,8, NOTE_C5,8,
  NOTE_D5,4, NOTE_G5,4, NOTE_E5,4,
  NOTE_F5,2, NOTE_C5,4, 
  NOTE_F5,4, NOTE_F5,8, NOTE_G5,8, NOTE_F5,8, NOTE_E5,8,
  NOTE_D5,4, NOTE_D5,4, NOTE_D5,4,
  NOTE_G5,4, NOTE_G5,8, NOTE_A5,8, NOTE_G5,8, NOTE_F5,8, 
  NOTE_E5,4, NOTE_C5,4, NOTE_C5,4,
  
  NOTE_A5,4, NOTE_A5,8, NOTE_AS5,8, NOTE_A5,8, NOTE_G5,8,//45
  NOTE_F5,4, NOTE_D5,4, NOTE_C5,8, NOTE_C5,8,
  NOTE_D5,4, NOTE_G5,4, NOTE_E5,4,
  NOTE_F5,2, NOTE_C5,4,
  NOTE_F5,4, NOTE_F5,8, NOTE_G5,8, NOTE_F5,8, NOTE_E5,8,
  NOTE_D5,4, NOTE_D5,4, NOTE_D5,4,
  NOTE_G5,4, NOTE_G5,8, NOTE_A5,8, NOTE_G5,8, NOTE_F5,8,
  NOTE_E5,4, NOTE_C5,4, NOTE_C5,4,
  
  NOTE_A5,4, NOTE_A5,8, NOTE_AS5,8, NOTE_A5,8, NOTE_G5,8, //53
  NOTE_F5,4, NOTE_D5,4, NOTE_C5,8, NOTE_C5,8,
  NOTE_D5,4, NOTE_G5,4, NOTE_E5,4,
  NOTE_F5,2, REST,4
};

const int melody3[] PROGMEM= {
  
  // Greensleeves 
  // Score available at https://musescore.com/user/168402/scores/1396946
  // Alexander Trompoukis
  
  NOTE_G4,8,//1
  NOTE_AS4,4, NOTE_C5,8, NOTE_D5,-8, NOTE_DS5,16, NOTE_D5,8,
  NOTE_C5,4, NOTE_A4,8, NOTE_F4,-8, NOTE_G4,16, NOTE_A4,8,
  NOTE_AS4,4, NOTE_G4,8, NOTE_G4,-8, NOTE_FS4,16, NOTE_G4,8,
  NOTE_A4,4, NOTE_FS4,8, NOTE_D4,4, NOTE_G4,8,
  
  NOTE_AS4,4, NOTE_C5,8, NOTE_D5,-8, NOTE_DS5,16, NOTE_D5,8,//6
  NOTE_C5,4, NOTE_A4,8, NOTE_F4,-8, NOTE_G4,16, NOTE_A4,8,
  NOTE_AS4,-8, NOTE_A4,16, NOTE_G4,8, NOTE_FS4,-8, NOTE_E4,16, NOTE_FS4,8, 
  NOTE_G4,-2,
  NOTE_F5,2, NOTE_E5,16, NOTE_D5,8,

  NOTE_C5,4, NOTE_A4,8, NOTE_F4,-8, NOTE_G4,16, NOTE_A4,8,//11
  NOTE_AS4,4, NOTE_G4,8, NOTE_G4,-8, NOTE_FS4,16, NOTE_G4,8,
  NOTE_A4,4, NOTE_FS4,8, NOTE_D4,04,
  NOTE_F5,2, NOTE_E5,16, NOTE_D5,8,
  NOTE_C5,4, NOTE_A4,8, NOTE_F4,-8, NOTE_G4,16, NOTE_A4,8,

  NOTE_AS4,-8, NOTE_A4,16, NOTE_G4,8, NOTE_FS4,-8, NOTE_E4,16, NOTE_FS4,8,//16
  NOTE_G4,-2,

  //repeats from the beginning

  NOTE_G4,8,//1
  NOTE_AS4,4, NOTE_C5,8, NOTE_D5,-8, NOTE_DS5,16, NOTE_D5,8,
  NOTE_C5,4, NOTE_A4,8, NOTE_F4,-8, NOTE_G4,16, NOTE_A4,8,
  NOTE_AS4,4, NOTE_G4,8, NOTE_G4,-8, NOTE_FS4,16, NOTE_G4,8,
  NOTE_A4,4, NOTE_FS4,8, NOTE_D4,4, NOTE_G4,8,
  
  NOTE_AS4,4, NOTE_C5,8, NOTE_D5,-8, NOTE_DS5,16, NOTE_D5,8,//6
  NOTE_C5,4, NOTE_A4,8, NOTE_F4,-8, NOTE_G4,16, NOTE_A4,8,
  NOTE_AS4,-8, NOTE_A4,16, NOTE_G4,8, NOTE_FS4,-8, NOTE_E4,16, NOTE_FS4,8, 
  NOTE_G4,-2,
  NOTE_F5,2, NOTE_E5,16, NOTE_D5,8,

  NOTE_C5,4, NOTE_A4,8, NOTE_F4,-8, NOTE_G4,16, NOTE_A4,8,//11
  NOTE_AS4,4, NOTE_G4,8, NOTE_G4,-8, NOTE_FS4,16, NOTE_G4,8,
  NOTE_A4,4, NOTE_FS4,8, NOTE_D4,04,
  NOTE_F5,2, NOTE_E5,16, NOTE_D5,8,
  NOTE_C5,4, NOTE_A4,8, NOTE_F4,-8, NOTE_G4,16, NOTE_A4,8,

  NOTE_AS4,-8, NOTE_A4,16, NOTE_G4,8, NOTE_FS4,-8, NOTE_E4,16, NOTE_FS4,8,//16
  NOTE_G4,-2
};


// sizeof gives the number of bytes, each int value is composed of two bytes (16 bits)
// there are two values per note (pitch and duration), so for each note there are four bytes
int notes ;//= sizeof(melody) / sizeof(melody[0]) / 2;

// this calculates the duration of a whole note in ms
int wholenote; // = (60000 * 4) / tempo;

int thisNote = 0; //current music note
int divider = 0, noteDuration = 0;

// select a melody, call this before playing
void music_select(unsigned int music_No) {
    switch (music_No)
    {
      default:
      case 0u:
        melody = melody0;
        notes = sizeof(melody0) / sizeof(melody[0]) / 2;
        tempo = 120; //90; //70; //180;
        break;
      case 1u:
        melody = melody1;
        notes = sizeof(melody1) / sizeof(melody[0]) / 2;
        tempo = 80;
        break;
      case 2u:
        melody = melody2;
        notes = sizeof(melody2) / sizeof(melody[0]) / 2;
        tempo = 140;
        break;
      case 3u:
        melody = melody3;
        notes = sizeof(melody3) / sizeof(melody[0]) / 2;
        tempo = 70;
        break;
    }
    //notes = sizeof(melody) / sizeof(melody[0]) / 2;
    wholenote = (60000 * 4) / tempo;
    thisNote = 0; //rewind
}

//void setup() {
/*void play() {
  // iterate over the notes of the melody.
  // Remember, the array is twice the number of notes (notes + durations)
  for (int thisNote = 0; thisNote < notes * 2; thisNote = thisNote + 2) {

    // calculates the duration of each note
    divider = pgm_read_word_near(melody+thisNote + 1);
    if (divider > 0) {
      // regular note, just proceed
      noteDuration = (wholenote) / divider;
    } else if (divider < 0) {
      // dotted notes are represented with negative durations!!
      noteDuration = (wholenote) / abs(divider);
      noteDuration *= 1.5; // increases the duration in half for dotted notes
    }

    // we only play the note for 90% of the duration, leaving 10% as a pause
    //tone(buzzer, pgm_read_word_near(melody+thisNote), noteDuration * 0.9);

    // Wait for the specief duration before playing the next note.
    //delay(noteDuration);

    // stop the waveform generation before the next note.
    //noTone(buzzer);

    //RGB LED fun
    digitalWrite(RGB1_PIN, random() % 2);
	digitalWrite(RGB2_PIN, random() % 2);
	digitalWrite(RGB3_PIN, random() % 2);

	//TimerFreeTone(BEEP_PIN, pgm_read_word_near(melody+thisNote), noteDuration * 0.9, 10); // Play melody. volume = 10 is max
	TimerFreeTone(BEEP_PIN, pgm_read_word_near(melody+thisNote), noteDuration * 0.9); // Play melody
	delay(noteDuration * 0.1);

    getBTData_Plus(); //Bluetooth Communication Data Acquisition
    getIRData();      //Infrared Communication Data Acquisition	
	if (func_mode == CMD_ClearAllFunctions) return; //exit on stop command from bluetooth
  }
    //RGB LED fun off
    digitalWrite(RGB1_PIN, LOW);
	digitalWrite(RGB2_PIN, LOW);
	digitalWrite(RGB3_PIN, LOW);
}*/

/*void loop() {
  // no need to repeat the melody.
}*/
